<svg xmlns="http://www.w3.org/2000/svg" viewBox="0 0 144 144" width="144" height="144">
  <g transform="translate(26.64, 44.607069382119434) scale(0.782878840179496)">
    <path fill="#df3128" d="m49.19,48.51c-.47.27-1.05.19-1.43-.2h-.01c-.38-.4-.45-.99-.18-1.45l12.52-21.32c.27-.46.82-.68,1.34-.54,1.08.3,2.22.47,3.4.47s2.3-.17,3.37-.46c.51-.14,1.06.09,1.33.55l3.97,6.82,4.17-2.37-4-6.86c-.27-.46-.2-1.05.18-1.43,2.43-2.44,3.89-5.86,3.7-9.62-.32-6.44-5.55-11.72-11.99-12.08-7.37-.41-13.47,5.44-13.47,12.72,0,3.49,1.41,6.65,3.69,8.95.38.38.45.97.18,1.43l-12.52,21.32c-.27.46-.82.68-1.34.54-1.08-.3-2.22-.47-3.4-.47s-2.3.17-3.37.46c-.51.14-1.06-.08-1.33-.55l-12.4-21.27c-.27-.47-.2-1.06.18-1.44l.03-.03c.38-.38.97-.46,1.43-.19l23.49,13.4,2.43-4.13h0s-23.54-13.43-23.54-13.43c-.47-.27-.7-.81-.56-1.33.52-1.95.6-4.08.05-6.31C23.79,4.39,19.17.45,13.74.04,5.93-.56-.53,5.89.03,13.69c.4,5.46,4.37,10.11,9.69,11.42,2.25.55,4.41.45,6.38-.09.52-.14,1.07.08,1.34.54l12.41,21.28c.27.46.2,1.05-.18,1.43-2.43,2.44-3.89,5.86-3.7,9.62.32,6.44,5.55,11.72,11.99,12.08,7.37.41,13.47-5.44,13.47-12.72,0-1.12-.15-2.21-.43-3.24-.14-.52.09-1.06.56-1.32l11.18-6.36-4.85-2.76-8.7,4.95Z"/>
    <path fill="#df3128" d="m115.88.04c-5.42.42-10.04,4.36-11.35,9.64-.55,2.22-.47,4.35.05,6.3.14.52-.09,1.06-.56,1.33l-37.23,21.18h0s4.85,2.76,4.85,2.76h0s34.75-19.78,34.75-19.78c.46-.26,1.05-.18,1.42.19l.02.02c.38.38.45.97.18,1.44l-12.52,21.32c-.27.46-.82.68-1.34.54-1.08-.3-2.22-.47-3.4-.47s-2.3.17-3.37.46c-.51.14-1.06-.08-1.33-.55l-3.98-6.82-4.17,2.37,4,6.86c.27.47.2,1.06-.18,1.44l-.03.03c-.38.38-.97.46-1.43.19l-23.48-13.41h0s-2.43,4.15-2.43,4.15h0s23.55,13.43,23.55,13.43c.47.27.7.81.56,1.33-.42,1.58-.55,3.28-.3,5.04.88,6.1,6.14,10.79,12.29,10.94,7.18.17,13.05-5.59,13.05-12.73,0-3.49-1.41-6.65-3.69-8.95-.38-.38-.45-.97-.18-1.43l12.52-21.32c.27-.46.82-.69,1.34-.54,1.98.56,4.14.66,6.41.11,5.33-1.3,9.3-5.96,9.7-11.43.56-7.8-5.91-14.25-13.72-13.65Z"/>
  </g>
</svg>